<svg version="1.1" id="Layer_1" xmlns="http://www.w3.org/2000/svg" xmlns:xlink="http://www.w3.org/1999/xlink" x="0px" y="0px"
	 width="100%" viewBox="0 0 1024 1024" enable-background="new 0 0 1024 1024" xml:space="preserve">
<path fill="#000000" opacity="1.000000" stroke="none" 
	d="
M879.070801,517.913208 
	C876.145386,571.125854 863.536316,621.215088 839.119324,668.264832 
	C820.526367,704.092163 796.780762,735.950256 767.689209,763.865051 
	C745.599670,785.061218 721.281006,803.349487 694.991760,818.997559 
	C672.001709,832.681885 647.276611,842.557495 622.081848,851.242065 
	C601.751099,858.250122 580.868835,863.400269 559.744141,867.320190 
	C539.599976,871.058167 519.229492,873.291138 498.739410,874.197815 
	C455.376099,876.116516 412.579590,872.248474 370.495331,861.407043 
	C289.121216,840.444214 221.532379,797.330261 166.175766,734.427429 
	C156.253677,723.152710 147.216461,711.223877 138.125122,699.316284 
	C136.898529,697.709717 135.056747,696.160950 135.620850,693.368958 
	C138.079849,693.156311 138.969147,695.161499 140.121429,696.546448 
	C172.937347,735.988098 212.234344,767.369202 257.654297,791.145996 
	C291.242218,808.728943 326.738800,820.903198 363.934143,827.986267 
	C379.446655,830.940308 394.987030,833.849365 410.816437,834.997375 
	C417.880920,835.509644 424.508270,838.904663 431.829041,839.007751 
	C439.771027,839.119507 447.347382,838.133423 454.809601,835.266663 
	C461.434631,832.721619 468.644775,833.463318 475.572144,832.915833 
	C509.032715,830.271362 541.891174,824.511292 574.091064,815.028015 
	C577.144470,814.128784 579.873474,813.341614 583.039062,815.521729 
	C610.236450,834.251648 655.040283,821.144714 663.702515,780.697327 
	C666.145752,769.288940 664.299377,758.453796 659.236938,748.180908 
	C657.363098,744.378418 658.315674,743.213501 661.971558,741.753967 
	C673.049988,737.331055 684.449219,734.543762 696.334106,733.874329 
	C702.205505,733.543640 705.971436,730.699768 708.978333,725.729187 
	C720.467163,706.738037 730.656677,687.116211 739.038391,666.552429 
	C744.393005,653.415466 748.481873,639.877258 752.177795,626.208984 
	C752.813110,623.859375 753.499451,621.453430 753.129639,618.659607 
	C747.370544,618.700134 742.241760,620.851562 736.892456,621.726562 
	C729.664673,622.908936 722.491089,624.419128 715.273743,625.670349 
	C710.163574,626.556335 709.394775,625.532227 710.663696,620.322205 
	C712.238953,613.854370 713.931885,607.400879 715.121094,600.858887 
	C715.834656,596.933044 717.660278,595.320740 721.581177,594.743286 
	C732.612183,593.118591 743.499695,590.711426 754.372559,588.203186 
	C759.110657,587.110168 761.037231,584.627563 761.558838,580.135925 
	C763.479675,563.596313 765.353638,547.069641 765.970642,530.400574 
	C767.476257,489.727234 763.448975,449.605072 755.046387,409.830048 
	C753.945496,404.618652 751.549927,402.613892 746.493713,402.228790 
	C731.224731,401.065979 715.983643,399.541351 700.717529,398.335663 
	C697.314453,398.066895 696.263855,396.769897 697.172241,393.565002 
	C698.579651,388.599823 700.024719,383.640137 701.225769,378.623505 
	C701.977905,375.481934 703.466980,374.316772 706.838257,374.635559 
	C718.272949,375.716858 729.736084,376.497009 741.188049,377.396240 
	C742.497375,377.499023 743.829773,377.885468 745.479370,376.754517 
	C745.525269,372.948639 743.739136,369.330566 742.505432,365.678680 
	C737.863403,351.937317 732.318298,338.521881 725.480164,325.750641 
	C722.133789,319.500671 720.960632,313.873596 724.382202,307.460724 
	C725.668396,305.050140 726.281555,302.280487 727.210693,299.648682 
	C729.947449,300.414520 730.618164,302.429016 731.504333,304.137146 
	C743.101318,326.491180 753.476562,349.359985 760.586792,373.594910 
	C761.518921,376.771851 762.133606,379.661804 766.632812,380.292938 
	C788.080994,383.301605 809.257202,387.765747 830.221191,393.221161 
	C830.990295,393.421326 831.812561,393.417206 833.030396,393.556244 
	C833.079041,390.419769 831.957031,387.812897 831.085083,385.234375 
	C819.187988,350.051270 801.794495,317.802399 779.324829,288.243866 
	C776.869751,285.014252 774.435425,283.990784 770.412842,285.096954 
	C759.017090,288.230682 747.458740,290.715363 735.806152,292.740906 
	C734.000854,293.054718 732.248718,293.423218 729.793457,292.831299 
	C731.218079,285.045441 733.177917,277.601959 736.367310,270.529785 
	C737.088318,268.930969 739.214966,269.102142 740.837646,268.740143 
	C746.628296,267.448395 752.653259,267.056000 758.070190,264.677185 
	C758.386414,262.354584 756.877930,261.344421 755.752502,260.209473 
	C736.438782,240.732758 715.346130,223.472244 691.940125,209.101913 
	C690.234802,208.054916 688.663696,206.905762 686.409485,207.800705 
	C672.611145,213.278824 658.273682,217.086044 644.087158,221.361465 
	C643.647522,221.493973 643.296265,221.919846 642.837280,222.257965 
	C642.514832,224.917557 644.535950,226.502304 645.750916,228.350311 
	C650.597412,235.722794 655.586731,242.995514 659.580872,250.895996 
	C660.796570,253.300568 660.924377,255.403122 659.841736,257.985046 
	C657.414917,263.772705 655.390686,269.729156 652.592529,277.258240 
	C649.942810,272.323547 647.828735,268.733978 646.038574,264.989532 
	C639.902710,252.154922 631.906311,240.486618 623.751648,228.904892 
	C622.204834,226.708115 620.380493,226.131424 617.738831,226.650101 
	C591.537598,231.794693 565.039856,234.066452 538.391296,235.447037 
	C501.382477,237.364334 464.451721,235.340836 427.501770,234.201981 
	C422.103882,234.035629 419.034119,235.932755 416.964966,240.509155 
	C416.212524,242.173401 414.873474,243.632599 414.396393,245.350418 
	C412.709900,251.422821 408.652588,252.186798 403.301575,250.916763 
	C398.390106,249.751038 393.343079,250.343826 388.355927,250.190842 
	C384.470398,250.071640 383.744019,248.606995 385.563751,245.144012 
	C387.052155,242.311539 390.843536,239.304428 388.990540,236.390045 
	C386.968567,233.209824 382.485870,235.274246 379.161255,235.514008 
	C360.537231,236.857132 342.174927,240.151428 323.802429,243.337723 
	C322.110260,243.631195 320.525055,244.139267 319.405304,245.477295 
	C312.022064,254.299622 305.262665,263.574005 299.360474,273.456970 
	C298.954407,274.136963 298.836182,274.988831 298.441711,276.196899 
	C303.984436,279.296051 310.294952,276.315948 316.031250,278.290283 
	C315.107025,281.907196 312.096252,283.243622 310.344299,285.558441 
	C308.737396,287.681610 306.439423,289.436920 305.361298,291.776184 
	C302.048950,298.963226 296.417572,301.083740 289.120972,300.028107 
	C283.104950,299.157745 279.511871,301.562622 277.342773,307.273621 
	C274.369934,315.100800 266.471069,318.317017 260.725464,323.452759 
	C235.436203,346.057617 217.290497,372.834290 210.184708,406.440918 
	C209.359924,410.341675 208.051056,414.146423 207.342346,418.063660 
	C206.556244,422.408661 207.790710,423.432495 211.865112,421.886139 
	C229.182327,415.313843 246.935333,410.215363 264.964508,406.056580 
	C272.423859,404.335907 279.961334,402.954041 287.421722,401.237305 
	C290.293945,400.576355 291.668671,401.682861 292.868225,404.139496 
	C295.204102,408.923218 297.581299,413.719543 300.396057,418.226685 
	C302.820709,422.109161 302.140503,423.737823 297.638947,424.522186 
	C280.577576,427.495117 263.676270,431.191986 247.051727,436.109192 
	C238.107239,438.754791 229.257507,441.670532 220.400101,444.585449 
	C215.941757,446.052643 214.719894,448.352814 216.491348,452.281799 
	C222.010056,464.522003 221.108032,477.645508 222.110626,490.527649 
	C222.465454,495.086761 220.635284,496.623840 216.253510,497.070068 
	C202.682220,498.452179 189.146942,500.192810 175.604065,501.846497 
	C169.440140,502.599182 168.825836,502.147827 168.760910,496.195190 
	C168.404678,463.528900 172.608887,431.379120 180.845474,399.845123 
	C190.800186,361.733246 206.088867,325.828583 228.001633,292.955719 
	C260.934387,243.551071 303.116180,204.192993 355.556244,176.014145 
	C396.756622,153.874954 440.690674,141.152649 487.193909,136.566315 
	C527.730774,132.568420 567.750122,135.313873 607.193359,145.041824 
	C652.300964,156.166779 693.813354,175.316849 731.518738,202.640518 
	C767.726135,228.878677 797.675781,261.029327 821.609680,298.641357 
	C845.700500,336.500031 862.142029,377.600372 871.363831,421.580505 
	C877.998047,453.220367 880.101624,485.188416 879.070801,517.913208 
M773.550659,425.143250 
	C782.637268,476.924469 783.744507,528.904785 776.520569,581.386047 
	C778.248047,581.281738 779.079163,581.377808 779.822205,581.165344 
	C800.664795,575.206848 820.980896,567.870117 840.384583,558.115234 
	C843.114197,556.742920 844.120605,554.524719 844.576538,551.779419 
	C846.786194,538.475525 848.174377,525.086853 848.754333,511.613831 
	C850.013245,482.365967 847.259460,453.447052 841.810242,424.728058 
	C841.310364,422.093903 839.929932,421.021210 837.724915,420.401398 
	C828.282532,417.747528 818.960327,414.642700 809.317749,412.736938 
	C798.549988,410.608795 787.797546,408.390961 776.994080,406.460388 
	C770.708862,405.337219 769.764832,406.468903 770.975769,412.561615 
	C771.754028,416.477417 772.575317,420.384613 773.550659,425.143250 
M502.020782,162.427948 
	C471.752319,169.736694 452.186829,190.971664 433.092712,215.198273 
	C492.086090,218.769897 549.727722,220.157074 608.084229,209.423447 
	C602.281799,201.359268 596.181396,195.741257 590.179138,190.007080 
	C565.580627,166.507401 536.848938,156.150787 502.020782,162.427948 
M835.403564,596.080322 
	C835.578064,594.351746 837.088562,592.765930 835.915222,590.657776 
	C835.126038,590.810181 834.264099,590.801392 833.567810,591.136536 
	C814.618286,600.259888 794.785889,606.994080 774.627258,612.808533 
	C771.393799,613.741150 770.172363,615.714905 769.478821,618.718384 
	C761.610718,652.791443 749.282593,685.161072 732.482483,715.850220 
	C730.400085,719.654175 727.815491,723.356750 726.740601,728.299011 
	C737.630127,727.117432 747.811707,724.772156 758.089172,723.002136 
	C762.276978,722.280884 765.429810,720.360413 768.221191,717.261780 
	C776.260315,708.337708 783.487244,698.794983 790.204102,688.862305 
	C809.522034,660.295654 824.802429,629.749451 835.403564,596.080322 
M426.297943,188.789505 
	C431.633820,182.705246 436.969696,176.620987 441.637543,171.298492 
	C404.934418,180.031143 370.151184,196.603088 338.177338,219.723236 
	C339.388947,221.108902 340.464294,220.753571 341.346344,220.574539 
	C360.982391,216.589066 380.842224,214.902161 400.848755,214.747421 
	C403.394867,214.727707 405.250916,213.855408 406.769043,211.761505 
	C412.543091,203.797745 419.086853,196.475891 426.297943,188.789505 
M642.983093,201.440018 
	C650.280762,199.373642 657.853638,198.141724 665.529907,194.129837 
	C641.404785,182.428238 617.047974,174.002731 591.441345,169.008057 
	C601.573425,177.071945 611.614441,185.279129 619.380859,195.338684 
	C626.019165,203.937042 632.797974,205.959137 642.983093,201.440018 
z"/>
<path fill="#000000" opacity="1.000000" stroke="none" 
	d="
M491.070679,482.885986 
	C510.831757,480.360596 530.138733,477.834839 549.453796,475.372467 
	C572.401428,472.446991 595.362488,469.627075 618.305359,466.665222 
	C636.794922,464.278290 655.267639,461.759827 673.744873,459.278015 
	C686.775513,457.527832 699.782837,455.589172 712.834717,454.017975 
	C723.787659,452.699432 732.095154,461.654297 729.683289,472.487823 
	C722.487305,504.810608 715.002563,537.069153 707.615417,569.349304 
	C702.862610,590.117493 698.083496,610.879639 693.313293,631.643921 
	C693.052490,632.779297 692.788147,633.914673 692.487732,635.039978 
	C688.749023,649.047729 683.730957,653.383362 669.361694,655.102051 
	C621.590637,660.815613 573.823914,666.564941 526.049500,672.250000 
	C495.467072,675.889160 464.878998,679.483398 434.277740,682.959106 
	C431.306244,683.296570 429.457031,684.279907 428.053131,686.972717 
	C423.664398,695.390991 419.019104,703.675171 414.535858,712.044861 
	C413.937134,713.162598 413.028381,714.314880 413.753571,716.118103 
	C418.720215,716.982117 423.825531,715.916931 428.856445,715.491760 
	C470.162567,712.001526 511.455475,708.351501 552.742493,704.639771 
	C587.221313,701.540100 621.687561,698.299744 656.157654,695.103699 
	C664.655640,694.315857 671.879761,698.128601 674.636780,704.940063 
	C677.591980,712.241150 675.674622,719.586609 669.484497,724.128662 
	C664.636719,727.685730 658.751709,727.581787 653.191650,728.093018 
	C619.541382,731.186646 585.878906,734.154541 552.206543,736.998840 
	C517.866943,739.899536 483.511169,742.610046 449.162415,745.402771 
	C432.407257,746.765015 415.649414,748.094604 398.897430,749.494568 
	C382.580902,750.857971 371.459473,737.793335 375.273071,721.565735 
	C377.289856,712.983887 382.455811,705.861816 386.446045,698.200439 
	C390.524933,690.369019 394.609741,682.539612 398.809631,674.772888 
	C399.953278,672.658020 399.901794,670.770996 399.101654,668.586304 
	C387.705902,637.470520 376.392700,606.324585 365.000946,575.207397 
	C354.296021,545.966309 343.429565,516.783813 332.883209,487.485901 
	C331.396606,483.356049 329.517303,481.780945 325.071289,481.848572 
	C304.908783,482.155243 284.741150,482.142548 264.575226,482.201202 
	C253.587906,482.233154 246.832947,475.885406 246.823639,465.631042 
	C246.815292,456.431152 253.924774,450.026794 264.429382,449.876648 
	C290.752655,449.500427 317.075867,449.097351 343.400452,448.846802 
	C352.125458,448.763733 352.401154,449.132874 355.420349,457.068207 
	C360.096893,469.359558 364.848633,481.623932 369.347229,493.980286 
	C370.562561,497.318451 372.435181,498.170990 375.752869,497.739319 
	C402.978394,494.196899 430.219025,490.770996 457.451294,487.280243 
	C468.512421,485.862366 479.564178,484.371399 491.070679,482.885986 
M657.603455,555.824097 
	C663.079041,555.513855 668.552246,555.031616 674.031128,554.954407 
	C677.619324,554.903870 679.213867,553.636230 680.002625,549.941101 
	C683.920837,531.587280 688.177979,513.305908 692.291687,494.993591 
	C692.682678,493.253204 693.348022,491.484955 692.430542,489.572052 
	C691.019653,488.912811 689.523376,489.184875 688.067749,489.372620 
	C675.884460,490.944153 663.720032,492.678802 651.515137,494.056641 
	C647.921692,494.462311 646.255554,495.777374 645.774719,499.419952 
	C643.428284,517.194946 640.914246,534.947998 638.414001,552.702393 
	C637.980347,555.781189 639.211182,557.066284 642.248352,556.845520 
	C647.051086,556.496460 651.856201,556.181030 657.603455,555.824097 
M620.708130,548.270447 
	C622.844055,533.480469 624.940186,518.684570 627.136475,503.903595 
	C627.961060,498.353699 627.508911,497.525024 621.984009,498.127106 
	C609.937622,499.439880 597.926025,501.068878 585.888977,502.472046 
	C581.794861,502.949280 580.425110,505.156708 580.256165,509.131531 
	C579.811951,519.583557 578.876160,530.014526 578.414246,540.466187 
	C578.131531,546.863525 578.361938,553.283569 578.361938,559.972900 
	C588.407715,560.399597 598.619507,558.911438 608.873474,558.753906 
	C618.730286,558.602600 618.729370,558.544922 620.708130,548.270447 
M547.742249,507.314423 
	C538.181824,508.596252 528.650024,510.232941 519.048645,511.007050 
	C514.395813,511.382172 512.998901,513.007751 513.255066,517.400085 
	C514.078186,531.515564 514.757385,545.640625 515.332947,559.768433 
	C515.470032,563.132874 517.109863,564.128174 520.085388,563.953491 
	C531.874023,563.261597 543.660950,562.535828 555.453430,561.916382 
	C558.469177,561.757996 559.489624,560.055481 559.626160,557.405518 
	C559.857422,552.917480 560.065247,548.428223 560.290955,543.939880 
	C560.842529,532.975342 561.354553,522.008423 561.977600,511.047913 
	C562.184692,507.404358 560.826294,505.697845 557.056091,506.224609 
	C554.256165,506.615753 551.443970,506.918152 547.742249,507.314423 
M495.365601,518.335022 
	C494.932526,516.017822 493.556549,514.720337 491.184692,515.002136 
	C477.633118,516.612305 464.087799,518.276001 450.545654,519.963989 
	C448.069458,520.272583 447.253204,521.706665 447.728790,524.209717 
	C450.244476,537.450623 452.750824,550.694519 455.062500,563.971863 
	C455.579254,566.939880 456.938293,567.904907 459.750183,567.720947 
	C470.713440,567.003906 481.678497,566.302734 492.649750,565.726318 
	C496.408600,565.528931 497.920410,563.989685 497.679810,560.091858 
	C496.838684,546.466614 496.227783,532.827209 495.365601,518.335022 
M499.944244,607.410767 
	C499.585449,601.096985 499.137085,594.786560 498.906555,588.468079 
	C498.795624,585.428162 497.789978,583.772888 494.463776,584.002075 
	C484.006927,584.722412 473.546967,585.404297 463.082550,586.002686 
	C459.995789,586.179138 458.988312,587.663452 459.491241,590.553833 
	C462.511902,607.913696 465.511627,625.277344 468.532745,642.637146 
	C469.031830,645.504944 470.413818,646.984558 473.682678,646.519775 
	C481.419006,645.419922 489.184967,644.517334 496.951080,643.642944 
	C500.581360,643.234192 502.164490,641.616333 501.857910,637.757935 
	C501.080322,627.971741 500.585175,618.163086 499.944244,607.410767 
M558.042419,586.973267 
	C558.580811,580.878296 558.564331,580.800415 552.331787,581.037048 
	C542.859436,581.396606 533.391907,581.882019 523.920227,582.260315 
	C517.443726,582.519043 516.989685,583.067688 517.347229,589.700867 
	C518.054321,602.815308 518.655396,615.935364 519.344727,629.050781 
	C519.492920,631.870728 519.814331,634.682129 520.084656,637.494751 
	C520.297363,639.707886 521.500610,640.807922 523.758789,640.529785 
	C532.991455,639.392395 542.214478,638.172668 551.456421,637.117432 
	C554.567627,636.762207 555.592896,635.201965 555.727112,632.192932 
	C556.386414,617.411133 557.212891,602.636841 558.042419,586.973267 
M588.486450,632.782349 
	C593.929504,632.108032 599.361633,631.319397 604.819336,630.798523 
	C608.621460,630.435669 610.244812,628.587036 610.707764,624.791382 
	C612.438354,610.601746 614.284973,596.422363 616.401611,582.286133 
	C617.024048,578.129028 615.854309,576.809937 611.803650,577.118835 
	C601.193726,577.927795 590.573364,578.609436 579.951172,579.241394 
	C577.080811,579.412231 576.350586,581.035889 576.268860,583.509277 
	C576.115112,588.164612 575.883728,592.817505 575.659058,597.470276 
	C575.137756,608.267822 574.661316,619.068054 574.037109,629.859741 
	C573.829956,633.441162 575.088623,634.706116 578.682983,633.976440 
	C581.606995,633.382874 584.616821,633.211609 588.486450,632.782349 
M395.373260,565.286804 
	C396.434814,567.716370 396.246796,571.007202 400.437714,570.924072 
	C411.432709,570.705994 422.387085,569.937622 433.342224,569.071655 
	C436.281464,568.839294 436.999847,567.293457 436.543457,564.707764 
	C434.373688,552.415710 432.127380,540.136230 430.099365,527.820801 
	C429.472504,524.014160 427.539001,522.754761 423.914215,523.225769 
	C414.348541,524.468567 404.765320,525.577942 395.204926,526.858704 
	C391.151581,527.401733 386.969208,527.405151 382.561310,529.252014 
	C386.037598,541.400818 390.840668,552.883240 395.373260,565.286804 
M432.954712,651.041016 
	C437.577820,650.557495 442.199127,650.055481 446.824707,649.596863 
	C449.996124,649.282532 451.102570,647.609131 450.544952,644.503784 
	C447.344269,626.679260 444.143768,608.854248 441.077576,591.006348 
	C440.574493,588.077820 439.190155,587.066650 436.381714,587.262207 
	C429.092743,587.769714 421.784637,588.043030 414.510193,588.698608 
	C411.416077,588.977356 408.191772,588.543518 405.083130,589.833740 
	C404.620300,591.775818 405.404297,593.456604 406.011536,595.147278 
	C412.242920,612.497131 418.592010,629.805725 424.649109,647.216125 
	C426.060913,651.274170 428.245300,652.438232 432.954712,651.041016 
M665.756531,611.399780 
	C668.583862,599.001404 671.411194,586.603027 674.410828,573.448914 
	C661.771790,574.184265 650.038940,574.808594 638.316833,575.591675 
	C635.540710,575.777100 635.257385,578.141479 634.937683,580.379517 
	C632.869446,594.858704 630.783752,609.335693 628.620239,623.800842 
	C628.095703,627.307922 630.000305,627.869019 632.720276,627.538330 
	C638.825928,626.795959 644.936584,625.232422 651.018188,625.354370 
	C660.477539,625.544128 665.104492,621.430359 665.756531,611.399780 
z"/>
<path fill="#000000" opacity="1.000000" stroke="none" 
	d="
M934.258118,664.106079 
	C921.523621,699.770447 905.198059,733.220947 884.303040,764.373779 
	C871.757996,783.077454 857.772217,800.642456 842.562622,817.273926 
	C817.124817,845.089905 788.512878,869.098511 756.970886,889.667664 
	C730.787476,906.742493 703.072266,920.821655 673.912537,932.067810 
	C637.691223,946.037292 600.273254,955.353760 561.752686,959.881226 
	C520.539795,964.725220 479.397675,964.155396 438.308868,957.535339 
	C372.486877,946.930359 311.917328,923.217590 256.715027,885.906372 
	C229.873581,867.764343 205.073608,847.083496 182.180267,824.139771 
	C181.022476,822.979492 179.770874,821.865601 179.620438,819.842346 
	C181.943222,818.770935 182.976517,820.816284 184.090546,821.869202 
	C199.294876,836.239136 216.196655,848.360779 233.851852,859.463562 
	C267.239899,880.460144 303.151031,895.679504 341.267273,905.656372 
	C371.944489,913.685974 403.083710,918.526917 434.830963,920.178101 
	C476.246185,922.332031 517.043274,918.319885 557.366821,909.449341 
	C607.682678,898.380676 654.969604,879.522156 698.965027,852.512451 
	C748.205261,822.282654 790.844788,784.580994 825.789856,738.652283 
	C860.396301,693.168701 885.849976,642.834900 901.427124,587.661865 
	C908.956421,560.993835 913.721252,533.894165 915.957520,506.265625 
	C917.749756,484.123322 918.100525,461.936554 916.444092,439.886810 
	C913.934143,406.475861 908.575195,373.500885 898.024902,341.444427 
	C878.232361,281.305542 846.489746,228.344452 804.084229,181.553604 
	C801.785828,179.017441 798.562134,176.817795 798.330688,172.582443 
	C801.616882,171.508896 803.316650,173.744751 805.049072,175.247101 
	C819.782166,188.023254 833.737854,201.582062 846.767517,216.122803 
	C873.973206,246.483459 896.128906,280.231689 913.919678,316.793701 
	C928.595215,346.953339 939.876099,378.380188 947.416870,411.164795 
	C956.127197,449.034119 959.993591,487.373199 958.934509,526.124451 
	C957.764771,568.924988 951.315613,610.976746 938.310364,651.892578 
	C937.050720,655.855347 935.676819,659.781799 934.258118,664.106079 
z"/>
<path fill="#000000" opacity="1.000000" stroke="none" 
	d="
M102.871719,355.983215 
	C116.033195,316.845703 134.157104,280.585876 157.367249,246.950455 
	C180.495300,213.434006 207.837738,183.661621 239.569534,158.117432 
	C286.110016,120.652206 338.283813,94.055145 395.978790,78.360405 
	C439.037384,66.647171 482.895752,61.504539 527.448486,63.120422 
	C558.976807,64.263916 589.963318,69.354187 620.558289,77.242271 
	C671.645325,90.413666 718.414368,112.679176 761.621704,142.714630 
	C763.480286,144.006622 765.570068,145.175369 766.286560,147.697220 
	C764.172119,149.070312 762.737976,147.492889 761.296021,146.649109 
	C745.180664,137.219131 728.618713,128.660172 711.410522,121.414268 
	C681.052002,108.631096 649.505798,99.955399 617.077698,94.300003 
	C589.372681,89.468300 561.437073,88.281075 533.426941,89.180565 
	C485.764130,90.711166 439.626984,100.329651 395.004425,117.017517 
	C364.032776,128.600250 334.589661,143.231949 306.867615,161.429901 
	C279.171906,179.610596 253.688904,200.332458 230.730911,224.189117 
	C205.088867,250.834930 183.265442,280.376129 164.622086,312.248932 
	C143.482605,348.389160 128.255890,386.993347 117.207268,427.339111 
	C109.937279,453.886627 103.878128,480.599579 103.197891,508.258362 
	C103.101631,512.172363 101.376007,513.986145 97.494926,514.261719 
	C93.848045,514.520630 90.183212,514.933167 86.606483,515.668335 
	C82.339928,516.545288 80.907822,514.934082 80.810638,510.765717 
	C80.192627,484.257080 80.931953,457.837921 84.972885,431.569824 
	C88.903221,406.020630 94.714348,380.930695 102.871719,355.983215 
z"/>
<path fill="#000000" opacity="1.000000" stroke="none" 
	d="
M668.820801,431.701965 
	C662.586426,449.951019 666.866516,446.590454 648.605225,447.040405 
	C641.276978,447.220978 633.935303,446.888855 626.609131,447.106476 
	C622.765991,447.220612 620.921143,445.787689 619.931091,442.060242 
	C611.981934,412.133423 602.487122,382.659546 593.604126,353.006104 
	C593.188721,351.619415 592.890564,350.057434 591.355286,349.171295 
	C588.940674,349.791656 588.877380,352.015991 588.318359,353.827271 
	C579.185364,383.416565 570.059204,413.007965 560.996033,442.618652 
	C560.099854,445.546600 558.671753,447.037201 555.355530,446.993835 
	C544.358643,446.849945 533.357178,446.869171 522.360229,447.025391 
	C518.543762,447.079590 516.824463,445.507050 515.729675,441.869324 
	C503.590179,401.532959 491.286652,361.246002 479.041412,320.941467 
	C474.202667,305.014862 469.392639,289.079468 464.588501,273.142365 
	C464.119141,271.585266 463.209534,270.035034 464.521423,267.753082 
	C470.120178,267.753082 476.072174,267.755127 482.024170,267.752594 
	C490.690430,267.748932 499.363770,267.943604 508.019470,267.638672 
	C511.552887,267.514160 512.917114,268.628143 513.809143,272.001343 
	C521.847290,302.398285 530.070312,332.746368 538.230408,363.111084 
	C538.733215,364.982117 538.926636,366.990051 540.462830,368.291016 
	C542.672729,367.829773 542.752380,366.085114 543.144775,364.754761 
	C550.680603,339.206818 558.162903,313.643066 565.651245,288.081146 
	C567.242310,282.650085 569.013672,277.260773 570.319336,271.761353 
	C571.109375,268.433868 572.926697,267.648926 576.022644,267.689545 
	C586.187195,267.822968 596.361877,267.982483 606.517212,267.654175 
	C611.019958,267.508606 612.992615,269.055969 614.160950,273.352478 
	C619.835999,294.222290 625.787231,315.016998 631.649536,335.835785 
	C634.220642,344.966644 636.788940,354.098480 639.415588,363.213409 
	C639.944031,365.047241 640.156311,367.137390 642.425781,368.531128 
	C645.484375,364.151733 645.926575,359.058777 647.276978,354.426392 
	C655.147705,327.426239 662.762512,300.350586 670.283691,273.250458 
	C671.403442,269.215698 673.168823,267.596497 677.550110,267.699799 
	C690.042419,267.994324 702.546570,267.753906 715.045837,267.799103 
	C720.262146,267.817932 720.722412,268.448700 719.184875,273.309021 
	C706.129395,314.579163 693.057617,355.844147 679.965942,397.102814 
	C676.341370,408.525879 672.633850,419.922607 668.820801,431.701965 
z"/>
<path fill="#000000" opacity="1.000000" stroke="none" 
	d="
M445.976013,342.710999 
	C451.135101,342.660431 455.819702,342.866058 460.457214,342.490509 
	C464.760406,342.142029 465.982422,343.981232 465.960663,347.946838 
	C465.861938,365.941559 465.978333,383.937347 465.897430,401.932251 
	C465.861481,409.923340 466.214752,417.915863 465.562103,425.912384 
	C465.317596,428.907837 464.284454,430.828979 461.644409,432.246216 
	C430.016052,449.225220 396.631042,455.411438 361.709503,445.879181 
	C325.914642,436.108521 303.853241,408.852905 298.950714,371.071381 
	C295.314514,343.048859 302.061615,317.763092 319.991394,295.883942 
	C332.462280,280.666168 349.016266,271.421356 368.061127,267.282990 
	C390.328003,262.444489 412.414490,263.377472 433.678192,272.506927 
	C441.822998,276.003845 449.248596,280.755951 456.382568,286.013580 
	C459.373688,288.217987 459.414490,289.933197 457.179260,292.902039 
	C450.468933,301.814758 443.977814,310.902710 437.704163,320.128326 
	C435.504089,323.363617 434.129852,323.444275 431.198395,320.918671 
	C413.547821,305.711639 380.785370,302.305176 361.950592,319.188782 
	C352.535706,327.628326 347.911957,338.458832 346.697235,350.795990 
	C344.830231,369.757172 348.959106,386.729126 364.759338,398.960358 
	C375.981476,407.647552 389.249359,408.684265 402.834442,407.421509 
	C408.317078,406.911926 413.648132,405.609497 418.906830,403.936920 
	C421.534485,403.101166 422.751160,401.634949 422.701721,398.881042 
	C422.623962,394.550323 422.487061,390.204132 422.757782,385.888519 
	C423.010315,381.863312 421.020416,380.168396 417.467590,380.533020 
	C408.644684,381.438507 399.818298,380.346313 391.014832,380.877075 
	C387.082947,381.114105 385.629211,379.641785 385.691376,375.728241 
	C385.839569,366.399994 385.953949,357.057556 385.579926,347.740997 
	C385.418121,343.710388 386.511169,342.569305 390.497192,342.610138 
	C408.823547,342.797852 427.152771,342.705505 445.976013,342.710999 
z"/>
<path fill="#000000" opacity="1.000000" stroke="none" 
	d="
M342.325989,673.638794 
	C353.697968,674.732910 364.624969,675.821655 375.561981,676.798401 
	C380.309021,677.222290 380.865204,678.034241 378.593231,682.299805 
	C374.053741,690.822510 369.513916,699.346313 364.856689,707.804810 
	C355.288849,725.182190 360.397827,747.353027 376.605530,758.498230 
	C379.376373,760.403625 382.369995,761.836182 385.599976,762.747131 
	C387.559296,763.299683 388.534515,764.384033 387.648438,766.405151 
	C379.854401,784.183411 382.985504,800.829895 392.789795,816.809204 
	C392.941772,817.056885 392.857849,817.449341 392.933411,818.387878 
	C389.118652,819.671814 385.222137,818.360168 381.520050,817.865356 
	C371.628204,816.543396 361.824493,814.575195 351.947479,813.124268 
	C345.597412,812.191406 340.437866,808.786987 335.255463,805.550354 
	C289.079956,776.711548 251.879623,738.920715 223.645187,692.422302 
	C211.260025,672.025635 201.093567,650.493896 193.322876,627.883911 
	C192.837097,626.470459 192.409912,625.031860 192.060577,623.579712 
	C191.961197,623.166626 192.233246,622.664185 192.543442,621.257141 
	C198.967026,624.457214 205.067810,627.694763 211.488968,630.174988 
	C216.764938,632.212830 221.880814,634.754028 227.452805,635.866455 
	C231.447601,636.664001 234.200089,638.673584 235.381531,642.522095 
	C237.788193,650.361816 243.134033,653.803772 251.087891,655.681885 
	C264.197510,658.777466 277.188751,662.407043 290.406281,665.094666 
	C292.514435,665.523315 294.603302,666.130798 297.032471,665.272217 
	C298.052917,661.901001 295.815918,658.960754 295.400940,655.780640 
	C294.951782,652.338867 293.763245,648.993713 292.899078,645.605957 
	C291.502777,640.131775 291.973419,639.542297 297.777527,639.852112 
	C302.595612,640.109253 307.405487,640.634888 312.224548,640.718018 
	C315.467285,640.773926 317.058441,642.086121 317.659180,645.245850 
	C319.124481,652.953186 321.863586,660.307617 324.125641,667.795898 
	C324.920074,670.425781 326.296539,671.553589 329.036041,671.795776 
	C333.338257,672.176208 337.603912,672.969543 342.325989,673.638794 
z"/>
<path fill="#000000" opacity="1.000000" stroke="none" 
	d="
M178.591064,556.748230 
	C143.166550,556.794678 108.209465,556.794678 73.093811,556.794678 
	C73.668900,553.875183 75.761551,554.027222 77.454849,553.859131 
	C101.790138,551.442139 126.134247,549.113953 150.469498,546.696533 
	C175.628677,544.197144 200.773911,541.556274 225.937546,539.103394 
	C248.787338,536.876099 271.654572,534.828003 294.512299,532.681519 
	C305.610779,531.639343 316.727783,530.737854 327.788330,529.380737 
	C331.387787,528.939087 332.966888,530.119324 334.109283,533.242676 
	C335.994690,538.397156 338.172150,543.444031 340.178650,548.555115 
	C342.610107,554.748779 342.431915,555.044556 335.931488,555.081299 
	C320.273621,555.169739 304.614868,555.142273 288.957550,555.284729 
	C253.984711,555.603027 219.012497,555.992432 184.040237,556.371643 
	C182.378662,556.389648 180.719040,556.587585 178.591064,556.748230 
z"/>
<path fill="#000000" opacity="1.000000" stroke="none" 
	d="
M410.620667,758.587708 
	C423.255402,748.402893 436.931061,745.673706 451.490967,752.383911 
	C465.972839,759.058044 473.041199,771.174561 473.870483,786.930542 
	C474.778320,804.179077 460.990936,820.486023 442.125824,824.715271 
	C426.394958,828.242004 408.295929,818.202148 401.276733,803.621887 
	C394.626953,789.809143 397.891327,769.376648 410.620667,758.587708 
M449.736511,784.990845 
	C449.359894,782.254578 448.062897,779.938965 446.315582,777.883972 
	C441.363953,772.060303 431.522949,771.419983 426.091034,776.521851 
	C420.015320,782.228333 419.837646,792.001526 425.928253,797.431274 
	C430.209412,801.247986 435.367371,802.563538 440.784241,800.417297 
	C447.245148,797.857239 450.114014,792.722656 449.736511,784.990845 
z"/>
<path fill="#000000" opacity="1.000000" stroke="none" 
	d="
M633.663452,802.780090 
	C607.308350,819.954895 580.619629,802.609070 575.336731,781.876282 
	C569.305908,758.208313 587.318542,733.221497 611.794189,733.008179 
	C625.129211,732.891907 640.715393,741.913086 647.070190,756.840759 
	C652.805786,770.314026 650.123108,786.465698 640.105103,796.731995 
	C638.133057,798.752930 636.012756,800.629211 633.663452,802.780090 
M603.295776,760.677917 
	C596.711609,767.429138 596.348206,775.854858 602.382080,781.867126 
	C607.943054,787.408325 616.901794,787.152283 622.476685,781.292725 
	C627.138489,776.392883 627.592773,768.888184 623.557617,763.434387 
	C619.126465,757.445312 611.603027,756.226379 603.295776,760.677917 
z"/>
<path fill="#000000" opacity="1.000000" stroke="none" 
	d="
M210.803970,603.408691 
	C238.199860,600.814331 265.197876,598.329956 292.203033,595.925476 
	C311.417450,594.214722 330.648529,592.687317 349.855560,590.899597 
	C353.947449,590.518799 356.358948,591.547729 357.734741,595.692322 
	C359.394592,600.692383 361.713654,605.473633 363.594360,609.982788 
	C362.836670,611.594666 361.862518,611.790649 360.834442,611.759094 
	C324.571136,610.646301 288.308228,609.519897 252.045074,608.402832 
	C239.235535,608.008240 226.424622,607.657104 213.615997,607.235596 
	C209.339920,607.094910 209.142517,606.792908 210.803970,603.408691 
z"/>
</svg>